<svg width="316" height="48" viewBox="0 0 316 48" fill="none" xmlns="http://www.w3.org/2000/svg">
<path d="M35.875 39V9.90909H43.7159V20.9886H43.8295C44.1136 20.25 44.5303 19.5729 45.0795 18.9574C45.6288 18.3324 46.3106 17.8352 47.125 17.4659C47.9394 17.0871 48.8864 16.8977 49.9659 16.8977C51.4053 16.8977 52.7737 17.2812 54.071 18.0483C55.3778 18.8153 56.4384 20.0227 57.2528 21.6705C58.0767 23.3182 58.4886 25.4583 58.4886 28.0909C58.4886 30.6098 58.0956 32.6979 57.3097 34.3551C56.5331 36.0123 55.4915 37.2481 54.1847 38.0625C52.8873 38.8769 51.4621 39.2841 49.9091 39.2841C48.8864 39.2841 47.9725 39.1184 47.1676 38.7869C46.3722 38.446 45.6903 37.9867 45.1222 37.4091C44.5634 36.822 44.1326 36.1591 43.8295 35.4205H43.6591V39H35.875ZM43.5455 28.0909C43.5455 29.1515 43.6828 30.0701 43.9574 30.8466C44.2415 31.6136 44.6392 32.2102 45.1506 32.6364C45.6714 33.053 46.2917 33.2614 47.0114 33.2614C47.7311 33.2614 48.3419 33.0578 48.8438 32.6506C49.3551 32.2339 49.7434 31.642 50.0085 30.875C50.2831 30.0985 50.4205 29.1705 50.4205 28.0909C50.4205 27.0114 50.2831 26.0881 50.0085 25.321C49.7434 24.5445 49.3551 23.9527 48.8438 23.5455C48.3419 23.1288 47.7311 22.9205 47.0114 22.9205C46.2917 22.9205 45.6714 23.1288 45.1506 23.5455C44.6392 23.9527 44.2415 24.5445 43.9574 25.321C43.6828 26.0881 43.5455 27.0114 43.5455 28.0909ZM75.9176 29.4545V17.1818H83.7585V39H76.3153V34.8523H76.0881C75.6146 36.2443 74.786 37.3333 73.6023 38.1193C72.4186 38.8958 71.0123 39.2841 69.3835 39.2841C67.8589 39.2841 66.5237 38.9337 65.3778 38.233C64.2415 37.5322 63.3561 36.5663 62.7216 35.3352C62.0966 34.1042 61.7794 32.6932 61.7699 31.1023V17.1818H69.6108V29.4545C69.6203 30.5341 69.8949 31.3816 70.4347 31.9972C70.9839 32.6127 71.7509 32.9205 72.7358 32.9205C73.3892 32.9205 73.9527 32.7831 74.4261 32.5085C74.9091 32.2244 75.2784 31.8267 75.5341 31.3153C75.7992 30.7945 75.9271 30.1742 75.9176 29.4545ZM107.69 24.2841H100.474C100.436 23.839 100.28 23.4555 100.005 23.1335C99.7304 22.8116 99.3752 22.5653 98.9396 22.3949C98.5135 22.215 98.04 22.125 97.5192 22.125C96.8468 22.125 96.2692 22.2481 95.7862 22.4943C95.3033 22.7405 95.0665 23.0909 95.076 23.5455C95.0665 23.8674 95.2038 24.1657 95.4879 24.4403C95.7815 24.715 96.3449 24.928 97.1783 25.0795L101.61 25.875C103.845 26.2822 105.507 26.9687 106.596 27.9347C107.694 28.8911 108.248 30.1742 108.258 31.7841C108.248 33.3371 107.784 34.6866 106.866 35.8324C105.957 36.9687 104.711 37.8494 103.13 38.4744C101.558 39.09 99.7635 39.3977 97.7464 39.3977C94.4131 39.3977 91.8042 38.7159 89.9197 37.3523C88.0447 35.9886 86.9983 34.1894 86.7805 31.9545H94.5646C94.6688 32.6458 95.0097 33.1809 95.5874 33.5597C96.1745 33.929 96.9131 34.1136 97.8033 34.1136C98.523 34.1136 99.1148 33.9905 99.5788 33.7443C100.052 33.4981 100.294 33.1477 100.303 32.6932C100.294 32.2765 100.085 31.9451 99.6783 31.6989C99.2805 31.4527 98.6555 31.2538 97.8033 31.1023L93.9396 30.4205C91.7143 30.0322 90.0476 29.2936 88.9396 28.2045C87.8317 27.1155 87.2824 25.714 87.2919 24C87.2824 22.4848 87.6802 21.2017 88.4851 20.1506C89.2995 19.09 90.4595 18.285 91.9652 17.7358C93.4804 17.1771 95.2749 16.8977 97.3487 16.8977C100.502 16.8977 102.988 17.5511 104.806 18.858C106.634 20.1648 107.595 21.9735 107.69 24.2841ZM121.773 39.3977C119.406 39.3977 117.379 38.929 115.694 37.9915C114.008 37.0445 112.716 35.7282 111.816 34.0426C110.916 32.3475 110.467 30.3826 110.467 28.1477C110.467 25.9129 110.916 23.9527 111.816 22.267C112.716 20.572 114.008 19.2557 115.694 18.3182C117.379 17.3712 119.406 16.8977 121.773 16.8977C123.914 16.8977 125.765 17.286 127.327 18.0625C128.899 18.8295 130.116 19.9186 130.978 21.3295C131.84 22.7311 132.275 24.3788 132.285 26.2727H125.012C124.908 25.1269 124.576 24.2557 124.018 23.6591C123.469 23.053 122.758 22.75 121.887 22.75C121.205 22.75 120.609 22.9489 120.097 23.3466C119.586 23.7348 119.188 24.3267 118.904 25.1222C118.62 25.9081 118.478 26.8977 118.478 28.0909C118.478 29.2841 118.62 30.2784 118.904 31.0739C119.188 31.8598 119.586 32.4517 120.097 32.8494C120.609 33.2377 121.205 33.4318 121.887 33.4318C122.465 33.4318 122.976 33.2992 123.421 33.0341C123.866 32.7595 124.226 32.3617 124.501 31.8409C124.785 31.3106 124.955 30.6667 125.012 29.9091H132.285C132.256 31.8314 131.816 33.5076 130.964 34.9375C130.112 36.358 128.904 37.4564 127.342 38.233C125.789 39.0095 123.933 39.3977 121.773 39.3977ZM141.599 39.3409C140.207 39.3409 138.976 39.1136 137.906 38.6591C136.846 38.1951 136.012 37.4943 135.406 36.5568C134.8 35.6193 134.497 34.4261 134.497 32.9773C134.497 31.7841 134.701 30.7661 135.108 29.9233C135.515 29.071 136.083 28.375 136.812 27.8352C137.542 27.2955 138.389 26.8835 139.355 26.5994C140.33 26.3153 141.382 26.1307 142.509 26.0455C143.73 25.9508 144.71 25.8371 145.449 25.7045C146.197 25.5625 146.737 25.3684 147.068 25.1222C147.4 24.8665 147.565 24.5303 147.565 24.1136V24.0568C147.565 23.4886 147.348 23.053 146.912 22.75C146.476 22.447 145.918 22.2955 145.236 22.2955C144.488 22.2955 143.877 22.4612 143.403 22.7926C142.939 23.1146 142.66 23.6117 142.565 24.2841H135.349C135.444 22.9583 135.866 21.7367 136.614 20.6193C137.371 19.4924 138.474 18.5928 139.923 17.9205C141.372 17.2386 143.181 16.8977 145.349 16.8977C146.912 16.8977 148.313 17.0824 149.554 17.4517C150.795 17.8116 151.85 18.3182 152.722 18.9716C153.593 19.6155 154.256 20.3731 154.71 21.2443C155.174 22.1061 155.406 23.0436 155.406 24.0568V39H148.077V35.9318H147.906C147.471 36.7462 146.94 37.4044 146.315 37.9062C145.7 38.4081 144.994 38.7727 144.199 39C143.413 39.2273 142.546 39.3409 141.599 39.3409ZM144.156 34.3977C144.753 34.3977 145.312 34.2746 145.832 34.0284C146.363 33.7822 146.794 33.4271 147.125 32.9631C147.456 32.4991 147.622 31.9356 147.622 31.2727V29.4545C147.414 29.5398 147.191 29.6203 146.955 29.696C146.727 29.7718 146.481 29.8428 146.216 29.9091C145.96 29.9754 145.686 30.0369 145.392 30.0938C145.108 30.1506 144.81 30.2027 144.497 30.25C143.891 30.3447 143.394 30.5009 143.006 30.7188C142.627 30.9271 142.343 31.1875 142.153 31.5C141.973 31.803 141.884 32.1439 141.884 32.5227C141.884 33.1288 142.097 33.5928 142.523 33.9148C142.949 34.2367 143.493 34.3977 144.156 34.3977ZM159.153 39V17.1818H166.766V21.3295H166.994C167.391 19.7955 168.021 18.6733 168.883 17.9631C169.754 17.2528 170.772 16.8977 171.937 16.8977C172.278 16.8977 172.614 16.9261 172.945 16.983C173.286 17.0303 173.613 17.1013 173.925 17.196V23.8864C173.537 23.7538 173.059 23.6544 172.491 23.5881C171.923 23.5218 171.435 23.4886 171.028 23.4886C170.261 23.4886 169.569 23.6638 168.954 24.0142C168.348 24.3551 167.87 24.8381 167.519 25.4631C167.169 26.0786 166.994 26.803 166.994 27.6364V39H159.153ZM183.144 39.2841C181.591 39.2841 180.161 38.8769 178.854 38.0625C177.557 37.2481 176.515 36.0123 175.729 34.3551C174.953 32.6979 174.565 30.6098 174.565 28.0909C174.565 25.4583 174.972 23.3182 175.786 21.6705C176.61 20.0227 177.671 18.8153 178.968 18.0483C180.275 17.2812 181.648 16.8977 183.087 16.8977C184.167 16.8977 185.114 17.0871 185.928 17.4659C186.743 17.8352 187.424 18.3324 187.974 18.9574C188.523 19.5729 188.94 20.25 189.224 20.9886H189.337V9.90909H197.178V39H189.394V35.4205H189.224C188.921 36.1591 188.485 36.822 187.917 37.4091C187.358 37.9867 186.676 38.446 185.871 38.7869C185.076 39.1184 184.167 39.2841 183.144 39.2841ZM186.042 33.2614C186.762 33.2614 187.377 33.053 187.888 32.6364C188.409 32.2102 188.807 31.6136 189.082 30.8466C189.366 30.0701 189.508 29.1515 189.508 28.0909C189.508 27.0114 189.366 26.0881 189.082 25.321C188.807 24.5445 188.409 23.9527 187.888 23.5455C187.377 23.1288 186.762 22.9205 186.042 22.9205C185.322 22.9205 184.707 23.1288 184.195 23.5455C183.693 23.9527 183.305 24.5445 183.031 25.321C182.765 26.0881 182.633 27.0114 182.633 28.0909C182.633 29.1705 182.765 30.0985 183.031 30.875C183.305 31.642 183.693 32.2339 184.195 32.6506C184.707 33.0578 185.322 33.2614 186.042 33.2614ZM211.539 39.3977C209.172 39.3977 207.145 38.929 205.46 37.9915C203.774 37.0445 202.481 35.7282 201.582 34.0426C200.682 32.3475 200.232 30.3826 200.232 28.1477C200.232 25.9129 200.682 23.9527 201.582 22.267C202.481 20.572 203.774 19.2557 205.46 18.3182C207.145 17.3712 209.172 16.8977 211.539 16.8977C213.906 16.8977 215.933 17.3712 217.619 18.3182C219.304 19.2557 220.597 20.572 221.496 22.267C222.396 23.9527 222.846 25.9129 222.846 28.1477C222.846 30.3826 222.396 32.3475 221.496 34.0426C220.597 35.7282 219.304 37.0445 217.619 37.9915C215.933 38.929 213.906 39.3977 211.539 39.3977ZM211.596 33.6023C212.259 33.6023 212.832 33.3797 213.315 32.9347C213.798 32.4896 214.172 31.8551 214.437 31.0312C214.702 30.2074 214.835 29.2273 214.835 28.0909C214.835 26.9451 214.702 25.965 214.437 25.1506C214.172 24.3267 213.798 23.6922 213.315 23.2472C212.832 22.8021 212.259 22.5795 211.596 22.5795C210.895 22.5795 210.294 22.8021 209.792 23.2472C209.29 23.6922 208.906 24.3267 208.641 25.1506C208.376 25.965 208.244 26.9451 208.244 28.0909C208.244 29.2273 208.376 30.2074 208.641 31.0312C208.906 31.8551 209.29 32.4896 209.792 32.9347C210.294 33.3797 210.895 33.6023 211.596 33.6023ZM226.028 39V17.1818H233.641V21.3295H233.869C234.266 19.7955 234.896 18.6733 235.758 17.9631C236.629 17.2528 237.647 16.8977 238.812 16.8977C239.153 16.8977 239.489 16.9261 239.82 16.983C240.161 17.0303 240.488 17.1013 240.8 17.196V23.8864C240.412 23.7538 239.934 23.6544 239.366 23.5881C238.798 23.5218 238.31 23.4886 237.903 23.4886C237.136 23.4886 236.444 23.6638 235.829 24.0142C235.223 24.3551 234.745 24.8381 234.394 25.4631C234.044 26.0786 233.869 26.803 233.869 27.6364V39H226.028Z" fill="#4EA8DE"/>
<path d="M253.883 39.3977C251.515 39.3977 249.489 38.929 247.803 37.9915C246.118 37.0445 244.825 35.7282 243.925 34.0426C243.026 32.3475 242.576 30.3826 242.576 28.1477C242.576 25.9129 243.026 23.9527 243.925 22.267C244.825 20.572 246.118 19.2557 247.803 18.3182C249.489 17.3712 251.515 16.8977 253.883 16.8977C256.023 16.8977 257.874 17.286 259.437 18.0625C261.009 18.8295 262.226 19.9186 263.087 21.3295C263.949 22.7311 264.385 24.3788 264.394 26.2727H257.121C257.017 25.1269 256.686 24.2557 256.127 23.6591C255.578 23.053 254.868 22.75 253.996 22.75C253.315 22.75 252.718 22.9489 252.207 23.3466C251.695 23.7348 251.298 24.3267 251.013 25.1222C250.729 25.9081 250.587 26.8977 250.587 28.0909C250.587 29.2841 250.729 30.2784 251.013 31.0739C251.298 31.8598 251.695 32.4517 252.207 32.8494C252.718 33.2377 253.315 33.4318 253.996 33.4318C254.574 33.4318 255.085 33.2992 255.531 33.0341C255.976 32.7595 256.335 32.3617 256.61 31.8409C256.894 31.3106 257.065 30.6667 257.121 29.9091H264.394C264.366 31.8314 263.925 33.5076 263.073 34.9375C262.221 36.358 261.013 37.4564 259.451 38.233C257.898 39.0095 256.042 39.3977 253.883 39.3977ZM278.084 39.3977C275.754 39.3977 273.747 38.9527 272.061 38.0625C270.385 37.1629 269.092 35.875 268.183 34.1989C267.284 32.5133 266.834 30.4962 266.834 28.1477C266.834 25.8939 267.288 23.9242 268.197 22.2386C269.107 20.553 270.39 19.2415 272.047 18.304C273.704 17.3665 275.66 16.8977 277.913 16.8977C279.561 16.8977 281.053 17.1534 282.388 17.6648C283.723 18.1761 284.864 18.9195 285.811 19.8949C286.758 20.8608 287.487 22.035 287.999 23.4176C288.51 24.8002 288.766 26.358 288.766 28.0909V29.9091H269.277V25.5909H281.55C281.54 24.9659 281.379 24.4167 281.067 23.9432C280.764 23.4602 280.352 23.0862 279.831 22.821C279.32 22.5464 278.737 22.4091 278.084 22.4091C277.449 22.4091 276.867 22.5464 276.337 22.821C275.806 23.0862 275.38 23.4555 275.058 23.929C274.746 24.4025 274.58 24.9564 274.561 25.5909V30.25C274.561 30.9508 274.708 31.5758 275.001 32.125C275.295 32.6742 275.716 33.1051 276.266 33.4176C276.815 33.7301 277.478 33.8864 278.254 33.8864C278.794 33.8864 279.286 33.8106 279.732 33.6591C280.186 33.5076 280.574 33.2898 280.896 33.0057C281.218 32.7121 281.455 32.3617 281.607 31.9545H288.766C288.519 33.4697 287.937 34.786 287.018 35.9034C286.1 37.0114 284.883 37.8731 283.368 38.4886C281.862 39.0947 280.101 39.3977 278.084 39.3977ZM291.965 47.1818V17.1818H299.749V20.9886H299.92C300.204 20.25 300.621 19.5729 301.17 18.9574C301.719 18.3324 302.401 17.8352 303.215 17.4659C304.03 17.0871 304.977 16.8977 306.056 16.8977C307.496 16.8977 308.864 17.2812 310.161 18.0483C311.468 18.8153 312.529 20.0227 313.343 21.6705C314.167 23.3182 314.579 25.4583 314.579 28.0909C314.579 30.6098 314.186 32.6979 313.4 34.3551C312.623 36.0123 311.582 37.2481 310.275 38.0625C308.978 38.8769 307.552 39.2841 305.999 39.2841C304.977 39.2841 304.063 39.1184 303.258 38.7869C302.462 38.446 301.781 37.9867 301.212 37.4091C300.654 36.822 300.223 36.1591 299.92 35.4205H299.806V47.1818H291.965ZM299.636 28.0909C299.636 29.1515 299.773 30.0701 300.048 30.8466C300.332 31.6136 300.729 32.2102 301.241 32.6364C301.762 33.053 302.382 33.2614 303.102 33.2614C303.821 33.2614 304.432 33.0578 304.934 32.6506C305.445 32.2339 305.834 31.642 306.099 30.875C306.373 30.0985 306.511 29.1705 306.511 28.0909C306.511 27.0114 306.373 26.0881 306.099 25.321C305.834 24.5445 305.445 23.9527 304.934 23.5455C304.432 23.1288 303.821 22.9205 303.102 22.9205C302.382 22.9205 301.762 23.1288 301.241 23.5455C300.729 23.9527 300.332 24.5445 300.048 25.321C299.773 26.0881 299.636 27.0114 299.636 28.0909Z" fill="#5E60CE"/>
<g clip-path="url(#clip0_43_109)">
<path d="M11.0215 12.933C14.1472 16.9011 15.8158 21.7944 15.7553 26.8155V28.0141L16.7865 28.6416C18.119 29.4482 19.1127 30.6993 19.5866 32.1669C19.1705 31.8605 18.7352 31.5803 18.2833 31.3278L15.5333 29.7838L15.0391 32.9001C14.9963 33.1755 14.9389 33.4485 14.8672 33.718H7.16151C7.04692 33.3655 6.95382 33.0129 6.86789 32.6463L6.24484 29.8261L3.70968 31.2362C3.28615 31.473 2.87723 31.7344 2.48507 32.0188C2.96824 30.5682 3.94123 29.3242 5.24224 28.4935L6.22336 27.866V26.7521C6.24106 21.7513 7.92967 16.8952 11.0287 12.933H11.0215ZM11.0287 10C10.868 10.0004 10.7128 10.058 10.5918 10.1622L10.5274 10.2186C6.39778 14.7656 4.10466 20.6454 4.08208 26.745C2.32967 27.8643 1.03251 29.5543 0.417263 31.5197C-0.197979 33.485 -0.0921719 35.6007 0.716194 37.4971C1.56776 35.6455 2.99131 34.1058 4.7839 33.0975C4.96368 33.8642 5.2031 34.6161 5.50005 35.3467C5.53771 35.4871 5.62118 35.6114 5.73763 35.7006C5.85408 35.7898 5.99706 35.8388 6.14458 35.8402H16.0847C16.2852 35.8402 16.4857 35.6498 16.586 35.3537C16.8758 34.6592 17.0778 33.9322 17.1875 33.1892C18.9836 34.1932 20.4083 35.7342 21.2553 37.5887C22.1124 35.7017 22.2451 33.5727 21.6287 31.5967C21.0124 29.6206 19.6888 27.9319 17.9037 26.8437C17.9745 20.7082 15.6935 14.7718 11.5157 10.2186C11.4535 10.1501 11.3773 10.0952 11.2922 10.0576C11.2071 10.0199 11.1149 10.0003 11.0215 10H11.0287Z" fill="#4EA8DE"/>
<path d="M11.0216 26.1598C10.4715 26.1598 9.93376 25.9995 9.47611 25.699C9.01846 25.3986 8.6614 24.9715 8.44993 24.4716C8.23847 23.9716 8.18206 23.4213 8.28782 22.8898C8.39358 22.3584 8.65678 21.8697 9.04423 21.4853C9.43169 21.1009 9.92606 20.838 10.465 20.7298C11.004 20.6216 11.5634 20.6729 12.0728 20.8773C12.5822 21.0816 13.0188 21.4298 13.3275 21.8781C13.6361 22.3263 13.8031 22.8545 13.8074 23.396C13.8159 23.7469 13.7542 24.0961 13.6256 24.4235C13.4971 24.751 13.3043 25.0503 13.0582 25.3043C12.8121 25.5583 12.5176 25.7622 12.1915 25.9041C11.8654 26.0461 11.5141 26.1234 11.1576 26.1316C11.1126 26.1387 11.0666 26.1387 11.0216 26.1316V26.1598Z" fill="#4EA8DE"/>
<path d="M14.8959 37.5958C14.7167 37.5901 14.5382 37.6198 14.3708 37.683C14.2034 37.7462 14.0505 37.8416 13.9211 37.9638C13.7917 38.086 13.6884 38.2323 13.6172 38.3943C13.546 38.5563 13.5084 38.7307 13.5066 38.9072V43.067C13.5066 43.4297 13.653 43.7776 13.9135 44.0342C14.1741 44.2907 14.5274 44.4348 14.8959 44.4348C15.2644 44.4348 15.6178 44.2907 15.8783 44.0342C16.1389 43.7776 16.2852 43.4297 16.2852 43.067V38.9636C16.291 38.7877 16.2611 38.6126 16.1973 38.4482C16.1336 38.2839 16.0372 38.1337 15.9139 38.0064C15.7906 37.879 15.6428 37.7772 15.4791 37.7067C15.3154 37.6362 15.139 37.5985 14.9604 37.5958H14.8959Z" fill="#5E60CE"/>
<path d="M7.16154 37.5958C6.97931 37.5863 6.797 37.613 6.62546 37.6743C6.45392 37.7356 6.29665 37.8302 6.16302 37.9526C6.02939 38.0749 5.92213 38.2225 5.84761 38.3865C5.77309 38.5505 5.73284 38.7275 5.72925 38.9072V43.067C5.72925 43.4297 5.87562 43.7777 6.13617 44.0342C6.39672 44.2907 6.7501 44.4348 7.11857 44.4348C7.48704 44.4348 7.84042 44.2907 8.10097 44.0342C8.36152 43.7777 8.50789 43.4297 8.50789 43.067V38.9636C8.51362 38.7877 8.48373 38.6126 8.41998 38.4482C8.35623 38.2839 8.25989 38.1337 8.13658 38.0064C8.01326 37.879 7.86544 37.7772 7.70173 37.7067C7.53802 37.6362 7.36169 37.5985 7.18302 37.5958H7.16154Z" fill="#5E60CE"/>
<path d="M10.9213 37.5958C10.7426 37.592 10.5649 37.623 10.3984 37.6869C10.2318 37.7507 10.0797 37.8463 9.95068 37.9681C9.82167 38.0899 9.71828 38.2355 9.64644 38.3966C9.5746 38.5577 9.5357 38.7312 9.53198 38.9072V44.6392C9.53198 45.002 9.67836 45.3499 9.93891 45.6064C10.1995 45.8629 10.5528 46.007 10.9213 46.007C11.2898 46.007 11.6432 45.8629 11.9037 45.6064C12.1643 45.3499 12.3106 45.002 12.3106 44.6392V38.9988C12.3164 38.823 12.2865 38.6478 12.2227 38.4835C12.159 38.3191 12.0626 38.1689 11.9393 38.0416C11.816 37.9143 11.6682 37.8124 11.5045 37.7419C11.3408 37.6714 11.1644 37.6337 10.9858 37.631L10.9213 37.5958Z" fill="#5E60CE"/>
</g>
<defs>
<clipPath id="clip0_43_109">
<rect width="22" height="36" fill="white" transform="translate(0 10)"/>
</clipPath>
</defs>
</svg>
